<?xml version="1.0" standalone="no"?>
<!DOCTYPE svg PUBLIC "-//W3C//DTD SVG 20010904//EN"
 "http://www.w3.org/TR/2001/REC-SVG-20010904/DTD/svg10.dtd">
<svg version="1.0" xmlns="http://www.w3.org/2000/svg"
 width="1536.000000pt" height="1536.000000pt" viewBox="0 0 1536.000000 1536.000000"
 preserveAspectRatio="xMidYMid meet">

<g transform="translate(0.000000,1536.000000) scale(0.100000,-0.100000)"
fill="#000000" stroke="none">
<path d="M0 7680 l0 -7680 7680 0 7680 0 0 7680 0 7680 -7680 0 -7680 0 0
-7680z m7742 3884 c39 -20 79 -77 85 -122 7 -55 -12 -105 -53 -142 -35 -30
-35 -31 -41 -136 l-6 -105 29 6 c16 4 41 11 57 15 15 5 27 7 27 4 0 -3 -28
-46 -63 -97 -35 -51 -67 -98 -71 -104 -18 -31 27 -7 119 63 193 146 176 136
199 121 22 -14 93 -151 102 -196 7 -32 -71 -143 -236 -340 l-109 -130 -3 -291
c-2 -234 0 -290 10 -290 7 0 11 4 8 9 -7 11 17 21 50 21 30 0 32 -17 2 -23
-17 -3 -15 -5 8 -6 30 -1 32 1 39 47 4 26 10 138 14 249 l7 203 115 117 c141
144 170 195 177 315 5 93 -9 168 -48 253 -35 77 -66 114 -167 205 -88 77 -101
104 -66 142 64 71 256 -82 361 -288 52 -103 71 -282 42 -404 -24 -104 -86
-207 -183 -305 l-89 -90 -8 -210 c-5 -115 -11 -217 -14 -225 -5 -11 3 -19 24
-27 31 -12 31 -12 28 -74 -3 -60 -5 -63 -33 -70 -44 -10 -686 -18 -712 -8 -16
6 -23 19 -28 53 -10 65 0 98 28 94 17 -2 21 1 19 17 -2 11 -7 109 -10 218 l-7
198 -35 27 c-165 126 -252 267 -274 440 -17 138 15 261 96 373 28 39 32 52 33
109 0 97 39 146 124 157 56 8 100 -13 117 -53 13 -30 16 -32 54 -27 27 4 40 2
40 -6 0 -13 -44 -86 -70 -116 -20 -23 -49 -172 -52 -265 -3 -87 23 -128 170
-282 109 -112 116 -118 131 -101 74 81 181 209 217 259 66 92 96 174 63 174
-5 0 -71 -44 -146 -98 -203 -144 -187 -135 -224 -117 l-31 16 3 284 c2 249 0
287 -14 302 -38 42 -50 140 -23 191 41 79 135 107 218 66z m339 -1974 c16 -9
19 -22 19 -74 l0 -63 -262 -6 c-438 -11 -506 -10 -516 11 -8 16 -17 120 -10
124 2 1 165 5 363 8 198 3 366 7 373 8 7 1 22 -3 33 -8z m3 -259 c7 -32 6 -45
-5 -56 -14 -13 -67 -24 -121 -25 -26 0 -28 -3 -28 -46 0 -25 -4 -54 -10 -64
-26 -48 -344 -62 -398 -18 -16 14 -42 74 -42 98 0 14 -12 18 -62 23 -75 7
-101 30 -96 86 l3 36 330 5 c470 7 418 12 429 -39z m2166 -852 c177 -38 300
-166 345 -364 9 -37 15 -82 13 -99 -3 -30 -5 -31 -58 -34 -30 -2 -78 -1 -106
3 l-51 6 -22 83 c-47 178 -110 211 -400 204 -125 -3 -152 -6 -186 -24 -52 -27
-92 -85 -107 -155 -10 -49 -9 -63 6 -103 21 -55 73 -109 136 -141 45 -23 138
-44 282 -65 281 -41 460 -176 507 -381 24 -102 7 -250 -38 -337 -32 -62 -127
-151 -196 -184 -84 -39 -174 -51 -330 -45 -151 5 -233 27 -336 87 -115 68
-187 169 -208 291 -15 87 -19 179 -7 180 16 1 181 -3 183 -4 0 -1 8 -37 17
-80 28 -135 75 -199 175 -239 49 -19 75 -22 202 -23 142 0 147 1 204 30 76 39
114 96 122 184 7 71 -21 152 -65 194 -44 42 -130 74 -242 92 -356 54 -580 198
-636 407 -39 146 16 326 130 426 43 38 114 75 176 93 96 27 357 26 490 -2z
m-4475 -18 c108 -43 199 -118 252 -209 55 -94 55 -91 54 -575 -2 -443 -2 -448
-26 -518 -44 -131 -116 -212 -243 -272 l-67 -32 -272 -3 c-358 -5 -420 10
-550 132 -84 78 -130 170 -143 288 -13 109 -13 766 0 843 26 159 130 281 298
351 56 24 61 24 347 21 278 -2 292 -3 350 -26z m1325 19 c236 -21 424 -254
408 -506 l-3 -49 -80 -3 c-110 -4 -125 1 -125 41 -1 116 -79 251 -169 290 -36
16 -496 21 -539 6 -18 -6 -52 -33 -77 -61 -73 -81 -75 -95 -75 -532 0 -232 4
-396 10 -418 16 -57 70 -120 130 -153 l55 -30 220 0 c248 1 275 6 331 63 51
52 82 119 97 209 l13 78 112 3 112 3 0 -48 c0 -70 -43 -215 -84 -282 -43 -70
-119 -146 -184 -183 -86 -50 -162 -60 -434 -56 -234 3 -245 4 -303 28 -70 30
-158 94 -198 145 -49 62 -86 155 -98 245 -18 131 -6 817 15 893 39 143 174
268 336 311 58 16 378 20 530 6z m-2667 -37 c83 -39 169 -123 215 -210 43 -82
55 -178 50 -411 -3 -185 -4 -188 -35 -253 -51 -108 -133 -186 -238 -225 -44
-16 -92 -19 -395 -24 l-345 -5 -5 -230 -5 -230 -102 0 c-57 0 -103 3 -103 8 0
4 0 369 0 812 l0 806 448 -3 447 -3 68 -32z m4442 -103 c32 -74 67 -155 77
-180 11 -25 23 -54 28 -65 133 -291 512 -1227 501 -1238 -4 -4 -56 -4 -116 0
l-108 8 -118 275 c-64 151 -123 288 -130 304 -55 130 -172 408 -223 531 -33
83 -65 152 -70 153 -5 2 -17 -16 -26 -40 -54 -138 -460 -1121 -490 -1185 l-20
-43 -101 0 -101 0 7 33 c22 109 46 171 400 1047 186 461 208 515 217 526 5 7
47 11 112 10 l103 -1 58 -135z m-978 -27 c-4 -87 -7 -449 -7 -805 l0 -648
-110 0 -110 0 0 805 0 805 117 0 116 0 -6 -157z m3094 -203 c-2 -213 1 -360 6
-360 14 0 326 324 589 613 l89 98 135 -3 c119 -3 135 -5 135 -20 0 -9 -34 -52
-75 -95 -41 -43 -158 -166 -260 -273 -101 -107 -217 -229 -257 -270 l-73 -75
102 -115 c270 -306 613 -716 624 -745 5 -11 -19 -14 -123 -17 -150 -4 -118
-23 -278 172 -60 74 -144 171 -185 215 -122 131 -251 273 -272 300 -11 14 -23
25 -28 25 -4 0 -35 -28 -69 -62 l-61 -62 0 -293 0 -293 -110 0 -110 0 0 810 0
810 113 0 112 0 -4 -360z m-5681 -2039 l0 -308 -63 -1 c-53 -1 -65 2 -76 20
-7 11 -72 97 -144 190 l-132 169 -3 -190 -2 -190 -63 4 -62 4 0 303 0 303 42
3 41 3 120 -153 c65 -84 140 -175 165 -203 l46 -50 2 115 c0 63 0 152 -1 197
-1 45 1 86 3 90 3 4 32 6 66 5 l61 -4 0 -307z m-870 5 l0 -304 -57 -4 c-32 -2
-59 -4 -60 -3 -2 1 -5 580 -3 608 0 4 27 7 60 7 l60 0 0 -304z m1466 293 c43
-6 91 -17 107 -25 45 -24 106 -83 135 -133 24 -40 27 -57 27 -131 0 -99 -23
-161 -83 -223 -72 -75 -95 -81 -294 -85 l-178 -4 -1 44 c-4 151 -4 518 -1 541
l5 27 103 0 c56 0 138 -5 180 -11z m660 -1 c5 -7 9 -103 10 -214 1 -130 6
-209 14 -223 30 -57 130 -78 200 -43 63 31 70 60 70 285 l0 197 60 0 60 0 0
-207 c-1 -225 -6 -255 -55 -319 -36 -47 -102 -75 -195 -81 -135 -9 -227 45
-265 156 -12 34 -15 92 -15 253 l0 208 54 0 c33 0 58 -5 62 -12z m1854 -44 l0
-56 -95 4 -95 4 0 -258 0 -258 -60 0 -60 0 -2 258 -3 257 -85 1 -85 2 -3 51
-3 51 245 0 246 0 0 -56z m1901 29 c0 -16 2 -40 4 -55 l4 -28 -165 0 -165 0 3
-67 3 -68 142 0 c158 0 153 3 144 -72 -3 -29 -7 -33 -45 -38 -22 -4 -85 -5
-139 -3 l-97 3 0 -72 0 -73 155 0 155 0 0 -55 0 -55 -213 0 -214 0 -6 188 c-4
103 -7 240 -7 305 l0 117 220 0 220 0 1 -27z m626 -5 c69 -37 74 -50 34 -92
l-34 -35 -30 21 c-20 14 -50 23 -86 26 -50 3 -59 1 -80 -21 -17 -19 -22 -33
-17 -51 9 -38 47 -57 136 -72 94 -15 131 -38 154 -94 43 -108 -4 -215 -110
-250 -55 -18 -190 -8 -239 17 -40 21 -113 89 -104 97 2 2 28 13 57 25 l54 20
34 -35 c31 -31 40 -34 91 -34 82 0 121 42 97 105 -10 24 -58 45 -105 45 -94 0
-175 69 -185 157 -10 84 39 156 128 190 50 19 149 10 205 -19z m-3336 -4 c63
-35 70 -57 32 -96 l-30 -29 -36 21 c-23 14 -56 23 -88 23 -44 2 -54 -2 -75
-26 -13 -15 -24 -34 -24 -42 0 -25 53 -52 133 -69 94 -19 128 -36 161 -79 41
-54 33 -162 -16 -215 -102 -109 -324 -88 -403 38 -29 46 -26 60 13 61 15 0 36
4 47 8 15 6 30 -1 64 -30 39 -35 50 -39 96 -39 65 0 105 27 105 70 0 40 -30
58 -136 81 -48 10 -98 26 -111 34 -75 50 -86 182 -20 254 61 66 200 82 288 35z
m1410 14 c85 -28 128 -91 129 -186 0 -70 -19 -112 -69 -152 -23 -18 -41 -37
-41 -42 0 -4 25 -48 55 -97 76 -124 76 -116 -1 -116 l-67 0 -56 100 -57 100
-63 5 c-34 3 -64 3 -67 1 -2 -2 -1 -48 3 -103 l6 -98 -66 0 -67 0 0 300 0 300
164 0 c97 0 177 -5 197 -12z m559 -288 l-1 -300 -64 0 -65 0 0 300 0 300 65 0
65 0 0 -300z"/>
<path d="M7637 11459 c-16 -22 -12 -52 9 -70 21 -17 63 -2 75 28 19 51 -53 88
-84 42z"/>
<path d="M7650 11125 c0 -80 4 -145 9 -145 22 0 30 34 37 158 l7 132 -27 0
-26 0 0 -145z"/>
<path d="M7253 11228 c-26 -32 -18 -78 13 -78 25 0 64 31 64 51 0 32 -58 52
-77 27z"/>
<path d="M7253 11016 c-98 -64 -113 -321 -27 -458 31 -49 129 -147 214 -214
71 -55 70 -52 70 -321 l0 -203 55 0 55 0 0 251 0 251 -138 143 c-139 143 -199
220 -221 284 -9 28 -8 55 4 130 9 53 20 107 26 120 14 35 -1 42 -38 17z"/>
<path d="M5155 8259 c-46 -13 -103 -66 -133 -123 l-27 -51 0 -410 c0 -400 1
-411 21 -450 31 -56 84 -109 141 -136 46 -23 56 -24 278 -24 169 0 240 4 269
14 49 17 111 73 139 125 21 40 22 53 25 436 2 265 0 412 -8 446 -14 66 -67
129 -134 160 -49 23 -59 24 -296 23 -135 0 -258 -5 -275 -10z"/>
<path d="M3687 8263 c-3 -4 -5 -169 -6 -365 l-2 -358 323 0 c292 0 327 2 363
19 48 22 88 66 107 118 20 58 18 386 -4 434 -22 50 -74 106 -122 132 -39 21
-54 22 -348 25 -168 2 -308 -1 -311 -5z"/>
<path d="M5740 6075 l0 -198 86 6 c112 7 170 34 202 97 38 76 28 166 -26 224
-38 41 -79 55 -176 62 l-86 7 0 -198z"/>
<path d="M8782 6173 l3 -88 80 -3 c44 -2 90 0 102 3 63 15 85 104 38 150 -22
23 -31 25 -125 25 l-101 0 3 -87z"/>
</g>
</svg>
